<svg width="30" height="30" viewBox="0 0 30 30" fill="none" xmlns="http://www.w3.org/2000/svg">
<g opacity="0.4">
<path d="M15 5C9.47833 5 5 9.59069 5 15.2528C5 19.7828 7.865 23.6259 11.8391 24.9818C12.3383 25.0767 12.5 24.7588 12.5 24.4889V22.5801C9.71833 23.2004 9.13916 21.3703 9.13916 21.3703C8.68416 20.1853 8.02834 19.87 8.02834 19.87C7.12084 19.2334 8.0975 19.2471 8.0975 19.2471C9.10167 19.3189 9.63 20.304 9.63 20.304C10.5217 21.871 11.9691 21.4182 12.54 21.1558C12.6291 20.4937 12.8884 20.0409 13.175 19.7854C10.9542 19.5248 8.61916 18.6456 8.61916 14.718C8.61916 13.5978 9.01 12.6836 9.64917 11.9659C9.54584 11.707 9.20333 10.6638 9.74667 9.25235C9.74667 9.25235 10.5866 8.97723 12.4975 10.3033C13.295 10.076 14.15 9.96236 15 9.95808C15.85 9.96236 16.7059 10.076 17.505 10.3033C19.4142 8.97723 20.2525 9.25235 20.2525 9.25235C20.7966 10.6647 20.4542 11.7079 20.3509 11.9659C20.9925 12.6836 21.38 13.5987 21.38 14.718C21.38 18.6559 19.0408 19.5231 16.8141 19.7768C17.1725 20.0947 17.5 20.7184 17.5 21.6753V24.4889C17.5 24.7614 17.66 25.0818 18.1675 24.981C22.1383 23.6233 25 19.7811 25 15.2528C25 9.59069 20.5225 5 15 5Z" fill="white"/>
</g>
</svg>
