<svg width="30" height="30" viewBox="0 0 30 30" fill="none" xmlns="http://www.w3.org/2000/svg">
<path d="M7.58296 20.321C6.55296 19.227 5.99996 18 5.99996 16.011C5.99996 12.511 8.45696 9.374 12.03 7.823L12.923 9.201C9.58796 11.005 8.93596 13.346 8.67596 14.822C9.21296 14.544 9.91596 14.447 10.605 14.511C12.409 14.678 13.831 16.159 13.831 18C13.831 18.9283 13.4622 19.8185 12.8058 20.4749C12.1495 21.1313 11.2592 21.5 10.331 21.5C9.25796 21.5 8.23196 21.01 7.58296 20.321ZM17.583 20.321C16.553 19.227 16 18 16 16.011C16 12.511 18.457 9.374 22.03 7.823L22.923 9.201C19.588 11.005 18.936 13.346 18.676 14.822C19.213 14.544 19.916 14.447 20.605 14.511C22.409 14.678 23.83 16.159 23.83 18C23.83 18.9283 23.4612 19.8185 22.8048 20.4749C22.1485 21.1313 21.2582 21.5 20.33 21.5C19.257 21.5 18.231 21.01 17.582 20.321H17.583Z" fill="white"/>
</svg>
