<svg width="81" height="30" viewBox="0 0 81 30" fill="none" xmlns="http://www.w3.org/2000/svg">
<g opacity="0.4">
<path d="M41.1992 11.4589L43.9658 11.2801C44.029 11.7324 44.1447 12.0691 44.334 12.311C44.6391 12.6897 45.0599 12.8791 45.6174 12.8791C46.0276 12.8791 46.3537 12.7844 46.5747 12.5845C46.785 12.4267 46.9113 12.1743 46.9113 11.9113C46.9113 11.6588 46.7956 11.4169 46.5957 11.2591C46.3853 11.0697 45.8909 10.8804 45.1125 10.7121C43.8396 10.428 42.9244 10.0493 42.3879 9.56543C41.8514 9.1131 41.5464 8.45037 41.5674 7.74557C41.5674 7.26168 41.7147 6.77778 41.9882 6.37805C42.3038 5.92571 42.7351 5.56805 43.2505 5.36818C43.808 5.12623 44.5865 5 45.5648 5C46.764 5 47.6792 5.22091 48.3104 5.67324C48.9415 6.11506 49.3202 6.83038 49.4359 7.80869L46.7009 7.96648C46.6273 7.5457 46.48 7.24064 46.238 7.04077C45.9961 6.8409 45.6805 6.74623 45.2702 6.74623C44.9336 6.74623 44.6812 6.81986 44.5128 6.95661C44.3551 7.08285 44.2499 7.2722 44.2604 7.48259C44.2604 7.64038 44.3445 7.78765 44.4708 7.88232C44.6075 8.00856 44.9336 8.12427 45.4491 8.22947C46.7219 8.50297 47.6266 8.77648 48.1841 9.0605C48.7417 9.34453 49.1414 9.69167 49.3833 10.1019C49.6358 10.5227 49.762 11.0066 49.7515 11.501C49.7515 12.0901 49.5832 12.6792 49.2466 13.1736C48.8994 13.6891 48.4156 14.0888 47.8475 14.3307C47.2479 14.5937 46.4905 14.7305 45.5858 14.7305C43.9869 14.7305 42.8823 14.4254 42.2617 13.8048C41.641 13.1841 41.2729 12.4057 41.1992 11.4589ZM11.8395 14.5727V5.16831H16.6889C17.5831 5.16831 18.2774 5.24195 18.7508 5.39974C19.2136 5.54701 19.6239 5.85207 19.8974 6.26233C20.2024 6.71467 20.3497 7.24064 20.3392 7.78765C20.3707 8.71336 19.8974 9.59699 19.0874 10.0598C18.7718 10.2387 18.4246 10.3649 18.067 10.428C18.33 10.5017 18.593 10.6279 18.8244 10.7752C19.0032 10.9224 19.1505 11.0908 19.2872 11.2696C19.445 11.4484 19.5818 11.6483 19.6975 11.8587L21.1071 14.5832H17.804L16.2471 11.6904C16.0473 11.3222 15.8789 11.0802 15.7212 10.9645C15.5108 10.8172 15.2583 10.7436 15.0058 10.7436H14.7534V14.5622H11.8395V14.5727ZM14.7534 8.97635H15.9841C16.2471 8.95531 16.4996 8.91323 16.7521 8.85011C16.9414 8.81855 17.1097 8.71336 17.2254 8.55557C17.5095 8.17687 17.4674 7.64038 17.1202 7.31428C16.9309 7.15648 16.5627 7.07233 16.0367 7.07233H14.7534V8.97635ZM11.1768 22.6306L13.9434 22.4517C14.0065 22.9041 14.1222 23.2407 14.3115 23.4826C14.6061 23.8613 15.0374 24.0612 15.5949 24.0612C16.0052 24.0612 16.3313 23.9665 16.5522 23.7667C16.7626 23.5983 16.8888 23.3564 16.8888 23.0934C16.8888 22.8409 16.7731 22.599 16.5732 22.4412C16.3628 22.2519 15.8684 22.0625 15.0795 21.8942C13.8066 21.6102 12.8914 21.2315 12.3549 20.7476C11.8184 20.2952 11.5134 19.6325 11.5344 18.9277C11.5344 18.4438 11.6817 17.9599 11.9552 17.5602C12.2708 17.1079 12.7021 16.7502 13.2175 16.5503C13.7751 16.3084 14.5535 16.1821 15.5318 16.1821C16.731 16.1821 17.6462 16.4031 18.2774 16.8554C18.9085 17.3077 19.2767 18.0125 19.3924 18.9908L16.6574 19.1486C16.5837 18.7279 16.4365 18.4228 16.1945 18.2229C15.9631 18.023 15.637 17.9284 15.2267 17.9389C14.8901 17.9389 14.6377 18.0125 14.4693 18.1598C14.301 18.286 14.2064 18.4754 14.2169 18.6858C14.2169 18.8436 14.301 18.9908 14.4273 19.0855C14.564 19.2117 14.8901 19.3275 15.4056 19.4327C16.6784 19.7062 17.5831 19.9797 18.1406 20.2637C18.6982 20.5477 19.0979 20.8949 19.3398 21.3051C19.5923 21.7259 19.7185 22.2098 19.7185 22.6937C19.7185 23.2828 19.5397 23.8613 19.2136 24.3557C18.8665 24.8712 18.3826 25.2709 17.8145 25.5129C17.2149 25.7759 16.4575 25.9126 15.5528 25.9126C13.9539 25.9126 12.8493 25.6076 12.2287 24.9869C11.6081 24.3557 11.2609 23.5773 11.1768 22.6306Z" fill="white"/>
<path d="M25.1676 21.8942L27.7133 22.6621C27.5766 23.3038 27.2925 23.9139 26.9033 24.4504C26.5457 24.9238 26.0723 25.292 25.5358 25.5339C24.9888 25.7759 24.2945 25.9021 23.4529 25.9021C22.4326 25.9021 21.591 25.7548 20.9493 25.4603C20.2971 25.1657 19.7396 24.6398 19.2662 23.8929C18.7928 23.146 18.5614 22.1887 18.5614 21.0211C18.5614 19.4642 18.9717 18.265 19.8027 17.4339C20.6337 16.6029 21.8014 16.1821 23.3162 16.1821C24.5049 16.1821 25.4306 16.4241 26.1144 16.8974C26.7876 17.3813 27.2925 18.1177 27.6292 19.1065L25.0624 19.6746C24.9993 19.4537 24.9046 19.2328 24.7784 19.0434C24.6206 18.8225 24.4207 18.6542 24.1788 18.528C23.9368 18.4017 23.6633 18.3491 23.3898 18.3491C22.7271 18.3491 22.2222 18.6121 21.875 19.1486C21.612 19.5378 21.4753 20.1585 21.4753 21C21.4753 22.0415 21.6331 22.7568 21.9487 23.146C22.2642 23.5352 22.7061 23.7246 23.2846 23.7246C23.8422 23.7246 24.2629 23.5668 24.547 23.2617C24.831 22.9356 25.0414 22.4833 25.1676 21.8942ZM31.1111 16.3399H34.0145V19.6325H37.1913V16.3399H40.1157V25.7443H37.1913V21.9363H34.0145V25.7443H31.1111V16.3399Z" fill="white"/>
<path d="M39.7161 21.0421C39.7161 19.5063 40.1474 18.3071 40.9994 17.455C41.8515 16.6029 43.0507 16.1716 44.576 16.1716C46.1434 16.1716 47.3427 16.5924 48.1947 17.434C49.0468 18.2755 49.4676 19.4537 49.4676 20.9685C49.4676 22.073 49.2782 22.9672 48.9101 23.672C48.5524 24.3663 47.9949 24.9343 47.3111 25.313C46.6063 25.7022 45.7332 25.9021 44.6918 25.9021C43.6293 25.9021 42.7562 25.7338 42.0619 25.3972C41.3466 25.0395 40.7575 24.482 40.3683 23.7982C39.937 23.0619 39.7161 22.1467 39.7161 21.0421ZM42.6194 21.0526C42.6194 21.9994 42.7983 22.6832 43.1454 23.1039C43.4925 23.5142 43.9764 23.7246 44.5866 23.7246C45.2072 23.7246 45.6911 23.5247 46.0382 23.1145C46.3854 22.7042 46.5537 21.9784 46.5537 20.9264C46.5537 20.0428 46.3749 19.3906 46.0172 18.9908C45.6595 18.5806 45.1757 18.3807 44.5655 18.3807C44.029 18.3597 43.5136 18.5911 43.1559 19.0014C42.7983 19.4116 42.6194 20.0954 42.6194 21.0526ZM52.4446 21.0421C52.4446 19.5063 52.8759 18.3071 53.728 17.455C54.58 16.6029 55.7792 16.1716 57.3046 16.1716C58.872 16.1716 60.0817 16.5924 60.9232 17.434C61.7648 18.2755 62.1961 19.4537 62.1961 20.9685C62.1961 22.073 62.0067 22.9672 61.6386 23.672C61.2809 24.3663 60.7234 24.9343 60.0396 25.313C59.3348 25.7022 58.4617 25.9021 57.4203 25.9021C56.3578 25.9021 55.4847 25.7338 54.7904 25.3972C54.0751 25.0395 53.486 24.482 53.0968 23.7982C52.6655 23.0619 52.4446 22.1467 52.4446 21.0421ZM55.3479 21.0526C55.3479 21.9994 55.5268 22.6832 55.8739 23.1039C56.2211 23.5142 56.705 23.7246 57.3151 23.7246C57.9357 23.7246 58.4196 23.5247 58.7668 23.1145C59.1139 22.7042 59.2822 21.9784 59.2822 20.9264C59.2822 20.0428 59.1034 19.3906 58.7457 18.9908C58.3881 18.5806 57.9042 18.3807 57.294 18.3807C56.7575 18.3597 56.2316 18.5911 55.8844 19.0014C55.5268 19.4116 55.3479 20.0954 55.3479 21.0526Z" fill="white"/>
<path d="M61.891 16.34H64.7944V23.4301H69.3283V25.7443H61.8805V16.34H61.891Z" fill="white"/>
<path d="M58.6908 15.7972C61.6138 13.5944 62.5153 9.86036 60.704 7.45695C58.8929 5.05354 55.0551 4.89089 52.1319 7.09365C49.2089 9.29642 48.3075 13.0305 50.1187 15.4339C51.9299 17.8373 55.7677 18 58.6908 15.7972Z" fill="white"/>
<path d="M58.6908 15.7972C61.6138 13.5944 62.5153 9.86036 60.704 7.45695C58.8929 5.05354 55.0551 4.89089 52.1319 7.09365C49.2089 9.29642 48.3075 13.0305 50.1187 15.4339C51.9299 17.8373 55.7677 18 58.6908 15.7972Z" fill="white"/>
<path d="M50.1529 15.5356C48.3399 13.1299 48.8206 9.70998 51.2264 7.89712L53.0914 6.49169C55.4971 4.67881 58.917 5.15944 60.7299 7.56521C62.5427 9.97097 62.0621 13.3908 59.6564 15.2037L57.7913 16.6091C55.3855 18.422 51.9657 17.9414 50.1529 15.5356Z" fill="white"/>
<path d="M58.6908 15.7972C61.6138 13.5944 62.5153 9.86036 60.704 7.45695C58.8929 5.05354 55.0551 4.89089 52.1319 7.09365C49.2089 9.29642 48.3075 13.0305 50.1187 15.4339C51.9299 17.8373 55.7677 18 58.6908 15.7972Z" fill="white"/>
<path d="M58.6908 15.7972C61.6138 13.5944 62.5153 9.86036 60.704 7.45695C58.8929 5.05354 55.0551 4.89089 52.1319 7.09365C49.2089 9.29642 48.3075 13.0305 50.1187 15.4339C51.9299 17.8373 55.7677 18 58.6908 15.7972Z" stroke="black" stroke-width="0.582524" stroke-miterlimit="10"/>
<path d="M58.6908 15.7972C61.6138 13.5944 62.5153 9.86036 60.704 7.45695C58.8929 5.05354 55.0551 4.89089 52.1319 7.09365C49.2089 9.29642 48.3075 13.0305 50.1187 15.4339C51.9299 17.8373 55.7677 18 58.6908 15.7972Z" fill="white"/>
<path d="M58.6908 15.7972C61.6138 13.5944 62.5153 9.86036 60.704 7.45695C58.8929 5.05354 55.0551 4.89089 52.1319 7.09365C49.2089 9.29642 48.3075 13.0305 50.1187 15.4339C51.9299 17.8373 55.7677 18 58.6908 15.7972Z" fill="white" stroke="black" stroke-width="0.776699" stroke-miterlimit="10"/>
<path d="M52.4203 14.1687L53.2452 13.4013C53.3159 13.5013 53.4014 13.592 53.4952 13.6669L53.4962 13.6678L53.4974 13.6687C53.5787 13.7267 53.6734 13.7626 53.7805 13.7626C53.8668 13.7626 53.9504 13.7267 54.0104 13.6797C54.1292 13.6068 54.2133 13.4636 54.201 13.3164L54.2008 13.314L54.2004 13.3117C54.1678 13.1264 54.0914 12.9391 53.9694 12.7941L52.5285 10.7668L53.4941 10.0909L54.7578 11.8889L54.7582 11.8895L54.7588 11.8902C54.976 12.1799 55.1417 12.4902 55.2662 12.832C55.3359 13.0824 55.3158 13.3534 55.2153 13.5948C55.0827 13.9007 54.8686 14.1554 54.5831 14.339L54.5822 14.3396L54.5814 14.3401C54.2373 14.58 53.9502 14.7119 53.7087 14.7522L53.7083 14.7522C53.4786 14.7922 53.2372 14.7526 53.0141 14.6514C52.7827 14.5355 52.5792 14.3745 52.4203 14.1687ZM56.7154 8.09265C57.0193 8.09265 57.3089 8.22815 57.5848 8.51793L56.7225 9.19822C56.5094 8.96932 56.146 8.92706 55.894 9.12421L55.8915 9.12619L55.8892 9.12845L55.8621 9.15553C55.7487 9.22534 55.6697 9.32864 55.6246 9.45248C55.5857 9.55645 55.6128 9.66923 55.6732 9.75373L55.6741 9.7549L55.675 9.75602C55.723 9.81608 55.7987 9.86919 55.8916 9.87041C55.9438 9.87619 56.0086 9.86596 56.0828 9.84475C56.1597 9.82279 56.2515 9.78762 56.3576 9.73985C56.8821 9.5196 57.2769 9.39544 57.5439 9.35437V9.35439L57.5453 9.35413C57.7674 9.31375 57.9988 9.33409 58.2094 9.42437L58.2098 9.4245C58.3992 9.50428 58.5595 9.64428 58.6699 9.81485L58.6704 9.81566L58.6709 9.81644C58.8123 10.0183 58.8933 10.261 58.9034 10.5142C58.9135 10.7764 58.843 11.0288 58.7015 11.2513C58.5161 11.5294 58.2792 11.7662 58.0012 11.9516V11.9516L58.0004 11.9521C57.4245 12.35 56.9659 12.508 56.6083 12.4484L56.6077 12.4483C56.2298 12.3902 55.9167 12.203 55.6854 11.9298L56.5616 11.2365C56.6675 11.3508 56.7989 11.4371 56.9396 11.4874L56.9409 11.4878L56.9422 11.4882C57.1688 11.5562 57.4065 11.5108 57.5981 11.3649C57.7301 11.2766 57.8446 11.1523 57.8912 10.9905C57.9628 10.7739 57.8427 10.5344 57.6261 10.4622L57.6231 10.4612C57.5942 10.4516 57.5565 10.439 57.5172 10.4385C57.4457 10.4329 57.3531 10.4451 57.24 10.4743C57.1251 10.5041 56.9859 10.5524 56.8214 10.6213C56.2883 10.8408 55.8771 10.9214 55.574 10.8911C55.2831 10.861 55.0144 10.7108 54.8556 10.4627L54.855 10.4617L54.8543 10.4608C54.7349 10.2915 54.6744 10.0915 54.6641 9.89016C54.6643 9.65761 54.7251 9.42705 54.8546 9.2377C55.0509 8.95875 55.288 8.72187 55.5761 8.53663L55.5769 8.53616L55.5776 8.53567C56.015 8.23365 56.3937 8.09265 56.7154 8.09265Z" fill="black" stroke="white" stroke-width="0.194175"/>
</g>
</svg>
