<svg width="30" height="30" viewBox="0 0 30 30" fill="none" xmlns="http://www.w3.org/2000/svg">
<g opacity="0.8">
<path d="M15.375 18.9545C17.3519 18.9545 18.9545 17.3519 18.9545 15.375C18.9545 13.3981 17.3519 11.7955 15.375 11.7955C13.3981 11.7955 11.7955 13.3981 11.7955 15.375C11.7955 17.3519 13.3981 18.9545 15.375 18.9545Z" stroke="white" stroke-width="2.5" stroke-linecap="round" stroke-linejoin="round"/>
<path d="M24.2045 18.9545C24.0457 19.3144 23.9983 19.7136 24.0685 20.1007C24.1387 20.4878 24.3232 20.8449 24.5983 21.1261L24.6699 21.1977C24.8918 21.4194 25.0678 21.6825 25.1879 21.9722C25.308 22.2619 25.3698 22.5725 25.3698 22.8861C25.3698 23.1997 25.308 23.5102 25.1879 23.7999C25.0678 24.0896 24.8918 24.3528 24.6699 24.5744C24.4483 24.7963 24.1851 24.9723 23.8954 25.0924C23.6057 25.2125 23.2951 25.2743 22.9815 25.2743C22.6679 25.2743 22.3574 25.2125 22.0677 25.0924C21.778 24.9723 21.5148 24.7963 21.2932 24.5744L21.2216 24.5028C20.9404 24.2278 20.5832 24.0432 20.1962 23.9731C19.8091 23.9029 19.4099 23.9503 19.05 24.1091C18.6971 24.2603 18.3961 24.5115 18.1841 24.8316C17.9721 25.1517 17.8584 25.5268 17.8568 25.9108V26.1136C17.8568 26.7465 17.6054 27.3535 17.1579 27.8011C16.7103 28.2486 16.1034 28.5 15.4705 28.5C14.8376 28.5 14.2306 28.2486 13.783 27.8011C13.3355 27.3535 13.0841 26.7465 13.0841 26.1136V26.0063C13.0749 25.6113 12.947 25.2283 12.7172 24.907C12.4874 24.5857 12.1662 24.3409 11.7955 24.2045C11.4356 24.0457 11.0364 23.9983 10.6493 24.0685C10.2622 24.1387 9.90507 24.3232 9.62386 24.5983L9.55227 24.6699C9.33064 24.8918 9.06746 25.0678 8.77776 25.1879C8.48806 25.308 8.17753 25.3698 7.86392 25.3698C7.55032 25.3698 7.23979 25.308 6.95009 25.1879C6.66039 25.0678 6.3972 24.8918 6.17557 24.6699C5.95369 24.4483 5.77768 24.1851 5.65758 23.8954C5.53749 23.6057 5.47568 23.2951 5.47568 22.9815C5.47568 22.6679 5.53749 22.3574 5.65758 22.0677C5.77768 21.778 5.95369 21.5148 6.17557 21.2932L6.24716 21.2216C6.52223 20.9404 6.70676 20.5832 6.77694 20.1962C6.84712 19.8091 6.79974 19.4099 6.64091 19.05C6.48966 18.6971 6.23852 18.3961 5.9184 18.1841C5.59828 17.9721 5.22315 17.8584 4.8392 17.8568H4.63636C4.00346 17.8568 3.39648 17.6054 2.94895 17.1579C2.50142 16.7103 2.25 16.1034 2.25 15.4705C2.25 14.8376 2.50142 14.2306 2.94895 13.783C3.39648 13.3355 4.00346 13.0841 4.63636 13.0841H4.74375C5.13869 13.0749 5.52171 12.947 5.84303 12.7172C6.16434 12.4874 6.40909 12.1662 6.54545 11.7955C6.70429 11.4356 6.75166 11.0364 6.68148 10.6493C6.6113 10.2622 6.42678 9.90507 6.1517 9.62386L6.08011 9.55227C5.85824 9.33064 5.68222 9.06746 5.56213 8.77776C5.44204 8.48806 5.38023 8.17753 5.38023 7.86392C5.38023 7.55032 5.44204 7.23979 5.56213 6.95009C5.68222 6.66039 5.85824 6.3972 6.08011 6.17557C6.30174 5.95369 6.56493 5.77768 6.85463 5.65758C7.14433 5.53749 7.45486 5.47568 7.76847 5.47568C8.08207 5.47568 8.3926 5.53749 8.6823 5.65758C8.972 5.77768 9.23519 5.95369 9.45682 6.17557L9.52841 6.24716C9.80962 6.52223 10.1668 6.70676 10.5538 6.77694C10.9409 6.84712 11.3401 6.79974 11.7 6.64091H11.7955C12.1484 6.48966 12.4493 6.23852 12.6613 5.9184C12.8733 5.59828 12.9871 5.22315 12.9886 4.8392V4.63636C12.9886 4.00346 13.2401 3.39648 13.6876 2.94895C14.1351 2.50142 14.7421 2.25 15.375 2.25C16.0079 2.25 16.6149 2.50142 17.0624 2.94895C17.5099 3.39648 17.7614 4.00346 17.7614 4.63636V4.74375C17.7629 5.1277 17.8767 5.50282 18.0887 5.82294C18.3007 6.14306 18.6016 6.3942 18.9545 6.54545C19.3144 6.70429 19.7136 6.75166 20.1007 6.68148C20.4878 6.6113 20.8449 6.42678 21.1261 6.1517L21.1977 6.08011C21.4194 5.85824 21.6825 5.68222 21.9722 5.56213C22.2619 5.44204 22.5725 5.38023 22.8861 5.38023C23.1997 5.38023 23.5102 5.44204 23.7999 5.56213C24.0896 5.68222 24.3528 5.85824 24.5744 6.08011C24.7963 6.30174 24.9723 6.56493 25.0924 6.85463C25.2125 7.14433 25.2743 7.45486 25.2743 7.76847C25.2743 8.08207 25.2125 8.3926 25.0924 8.6823C24.9723 8.972 24.7963 9.23519 24.5744 9.45682L24.5028 9.52841C24.2278 9.80962 24.0432 10.1668 23.9731 10.5538C23.9029 10.9409 23.9503 11.3401 24.1091 11.7V11.7955C24.2603 12.1484 24.5115 12.4493 24.8316 12.6613C25.1517 12.8733 25.5268 12.9871 25.9108 12.9886H26.1136C26.7465 12.9886 27.3535 13.2401 27.8011 13.6876C28.2486 14.1351 28.5 14.7421 28.5 15.375C28.5 16.0079 28.2486 16.6149 27.8011 17.0624C27.3535 17.5099 26.7465 17.7614 26.1136 17.7614H26.0063C25.6223 17.7629 25.2472 17.8767 24.9271 18.0887C24.6069 18.3007 24.3558 18.6016 24.2045 18.9545Z" stroke="white" stroke-width="2.5" stroke-linecap="round" stroke-linejoin="round"/>
</g>
</svg>
